<svg width="87" height="29" viewBox="0 0 87 29" fill="none" xmlns="http://www.w3.org/2000/svg">
<path d="M0 28.5291V0.470908H16.3808V6.35724H6.54485V12.2436H14.6979V18.1299H6.54485V28.5291H0Z" fill="#F6F2F2"/>
<path d="M15.8555 28.5291L24.9435 0.470908H31.8249L40.9129 28.5291H34.181L32.5355 22.6428H24.1955L22.5873 28.5291H15.8555ZM25.7288 17.1488H31.0021L29.5062 11.6942L28.4216 6.86739H28.3468C27.9479 8.90798 27.5863 10.5169 27.2622 11.6942L25.7288 17.1488Z" fill="#F6F2F2"/>
<path d="M41.6024 14.4411C41.6024 10.3076 42.9114 6.86739 45.5293 4.12043C48.1722 1.37348 51.5381 0 55.6271 0C57.4971 0 59.3172 0.340099 61.0874 1.0203C62.8576 1.67433 64.3785 2.65539 65.6501 3.96346L62.6207 9.14344C61.7232 8.30627 60.6635 7.62607 59.4418 7.10284C58.245 6.55345 57.0732 6.27876 55.9263 6.27876C53.433 6.27876 51.5506 7.0636 50.279 8.63329C49.0075 10.1768 48.3717 12.0604 48.3717 14.2842C48.3717 16.5602 49.0199 18.5354 50.3164 20.2097C51.6379 21.8841 53.5078 22.7212 55.9263 22.7212C58.4694 22.7212 60.838 21.5701 63.0321 19.2679L66.3981 24.2909C63.5059 27.4303 59.9155 29 55.6271 29C51.3885 29 47.9852 27.6396 45.4171 24.9188C42.874 22.1719 41.6024 18.6793 41.6024 14.4411Z" fill="#F6F2F2"/>
<path d="M69.7216 28.5291V0.470908H86.4764V6.35724H76.2664V11.4587H84.4195V17.3451H76.2664V22.6428H87V28.5291H69.7216Z" fill="#F6F2F2"/>
</svg>
