<svg width="273" height="64" viewBox="0 0 273 64" fill="none" xmlns="http://www.w3.org/2000/svg">
<path d="M120.65 42.4082V26.1195C120.65 23.754 122.386 22.2879 123.708 22.18C125.947 21.9821 125.758 23.9159 125.758 26.9649V40.0606C125.758 43.1007 125.947 45.0435 123.708 44.8456C122.386 44.7377 120.65 43.5684 120.65 42.4082ZM120.605 22.4948L120.416 22.7196L120.605 17.9886C118.536 18.4113 116.269 18.7621 113.895 19.023C110.801 19.3647 107.86 19.5087 105.233 19.4727V19.8414H105.242V20.1203H105.503C106.277 20.0843 108.588 20.516 108.66 23.2323V48.3804C108.678 53.3452 111.529 59.5963 119.372 60.9634C119.858 61.0444 120.254 61.0624 120.569 61.0624V45.2324C120.587 45.2234 120.605 45.2234 120.605 45.2234C121.576 45.7181 122.889 46.2397 124.832 46.2397C133.682 46.2397 138.368 40.9871 138.368 31.633C138.368 23.9159 135.229 18.3934 129.059 18.3934C125.57 18.3934 122.772 20.1922 120.605 22.4948Z" fill="#FF5959"/>
<path d="M86.372 32.1007C86.372 22.09 87.5052 18.8251 89.1062 18.8251C90.7612 18.8251 91.8405 22.09 91.8405 32.1007C91.8405 42.0484 90.7612 45.3223 89.1062 45.3223C87.5052 45.3223 86.372 42.0484 86.372 32.1007ZM73.7529 32.1007C73.7529 40.7352 80.022 46.1588 89.1062 46.1588C98.1815 46.1588 104.406 40.7352 104.406 32.1007C104.406 23.5201 98.1815 17.9886 89.1062 17.9886C80.022 17.9886 73.7529 23.5201 73.7529 32.1007Z" fill="#FF5959"/>
<path d="M231.693 41.2479V28.0263C231.693 23.7 229.66 19.4187 225.064 18.5193V18.5103C224.506 18.3844 223.895 18.3214 223.247 18.3214C219.991 18.3214 215.953 19.6975 214.136 23.0524C214.136 23.0524 213.749 23.736 213.533 24.4375C212.139 19.7155 208.479 18.3304 205.672 18.3304C202.416 18.3304 198.378 19.6975 196.552 23.0704L196.525 22.9535L196.561 17.9886C194.564 18.3754 192.415 18.7082 190.157 18.951C186.766 19.3198 183.573 19.4547 180.785 19.3737V19.7515H180.794V20.0033H181.046C181.801 19.9854 184.041 20.3991 184.158 22.9715V38.7475H184.149V40.6453C184.149 44.7467 187 45.3223 190.256 45.3223H200.312V44.8726C198.207 44.7467 196.579 44.0451 196.552 41.3288V26.0385C196.552 23.655 198.315 22.18 199.646 22.063C201.922 21.8742 201.733 23.8259 201.733 26.893V38.7475H201.715V40.6453C201.715 44.7467 204.557 45.3223 207.813 45.3223H217.878V44.8726C215.863 44.7557 214.298 44.1081 214.127 41.6796V28.8807C214.127 28.404 214.1 27.9273 214.073 27.4866L214.145 25.7507C214.271 23.5291 215.953 22.162 217.221 22.054C219.497 21.8562 219.308 23.8169 219.308 26.884V30.7066V30.7156V40.6453C219.308 44.7467 222.15 45.3223 225.406 45.3223H235.462V44.8726C233.339 44.7467 231.693 44.0271 231.693 41.2479Z" fill="#FF5959"/>
<path d="M253.649 38.1808C253.649 41.4458 251.616 42.1293 250.609 41.8325C249.286 41.4278 248.9 40.1956 248.9 37.947C248.9 34.5291 249.781 32.6224 250.869 31.0394C251.94 29.4923 253.181 28.3411 253.649 26.875V38.1808ZM272.294 38.8014C272.447 39.1612 272.528 39.539 272.528 39.9437C272.528 41.6257 271.089 42.9838 269.317 42.9838C267.59 42.9838 266.169 41.6886 266.097 40.0786C266.097 40.0157 266.088 39.9707 266.088 39.9257V26.4972C266.088 21.5234 261.06 17.9886 250.707 17.9886C247.478 17.9886 243.809 18.3484 241.183 19.5986V19.6436C239.15 20.489 237.729 22.4048 237.729 24.6354C237.729 27.6485 240.319 30.1039 243.512 30.1039C246.696 30.1039 249.286 27.6485 249.286 24.6354C249.286 24.5005 249.277 24.3656 249.268 24.2307C249.277 23.9968 249.295 23.745 249.295 23.4931C249.295 23.4931 249.214 20.3811 249.214 20.1832C249.214 19.2658 249.997 18.5193 250.977 18.5193C251.544 18.5193 252.048 18.7621 252.371 19.1399C253.271 20.0753 253.649 22.063 253.649 24.2487V24.4375C253.649 29.5553 247.568 31.0933 245.248 31.66C239.402 33.0991 236.757 35.3386 236.568 38.9094C236.523 39.467 236.559 39.9797 236.64 40.4744C237.153 43.6044 239.869 45.3223 243.98 45.3223C247.883 45.3223 251.796 44.3689 253.783 40.5733C253.783 40.5733 254.494 44.171 260.151 45.1065C263.992 45.754 274.479 45.1154 272.824 38.7835L272.294 38.8014Z" fill="#FF5959"/>
<path d="M159.236 19.7605C155.98 19.5356 155.242 18.5553 155.242 14.9575V11.6926H154.352C152.454 14.1301 147.489 19.3288 139.412 19.7785V20.48H142.578V37.929C142.578 42.8759 146.374 46.4826 153.74 46.4826C156.519 46.4826 159.182 45.4932 160.944 44.162C160.989 44.1441 160.684 43.8562 160.684 43.8562C160.288 44.0631 159.622 44.225 159.2 44.225C155.692 44.225 155.242 41.086 155.242 37.929V20.4441H159.595V19.7695L159.236 19.7605Z" fill="#FF5959"/>
<path d="M177.287 41.4458V24.8603H177.269L177.296 12.619C178.384 9.88474 178.357 6.81768 177.134 4.05643C177.017 3.74163 176.864 3.44482 176.675 3.14801C176.603 3.0041 176.522 2.86019 176.432 2.71628L176.405 2.73427C176.189 2.41947 175.947 2.13165 175.668 1.86182C173.122 -0.620607 168.976 -0.620607 166.431 1.86182C163.885 4.33526 163.876 8.34672 166.431 10.8202C168.976 13.2936 173.122 13.2936 175.668 10.8202C176.351 10.1636 176.846 9.38106 177.17 8.54459C177.152 11.2249 176.081 13.8512 174.031 15.848C173.644 16.2167 173.239 16.5675 172.826 16.8913C172.115 17.296 171.305 17.6918 170.37 18.0426C168.625 18.6902 166.53 19.0409 164.938 19.1579C164.515 19.1938 164.902 19.2118 164.569 19.2118H164.173V19.2028H162.797V19.8774H162.842C163.66 19.9044 164.632 19.6256 164.938 21.6943C164.965 21.8562 164.973 22.7916 164.982 22.9715V25.7507H164.964V38.8914V40.8072C164.964 44.8456 167.609 45.5292 170.721 45.5562C170.811 45.5652 170.919 45.5652 171.018 45.5652H171.027H181.019V45.0975C178.915 44.9715 177.296 44.252 177.287 41.4458Z" fill="#FF5959"/>
<path d="M35.6711 14.1121C35.6711 24.0688 34.5558 27.3337 32.8559 27.3337C31.2189 27.3337 30.0407 24.0688 30.0407 14.1121C30.0407 4.09241 31.2189 0.827476 32.8559 0.827476C34.5558 0.827476 35.6711 4.09241 35.6711 14.1121ZM32.8559 28.1702C34.0612 28.1702 35.2214 28.0712 36.3187 27.9003C37.452 21.6943 41.8862 17.395 48.398 16.5045C48.506 15.731 48.5689 14.9395 48.5689 14.1121C48.5689 5.5315 42.183 0 32.8559 0C23.5378 0 17.0889 5.5315 17.0889 14.1121C17.0889 14.9305 17.1518 15.731 17.2598 16.4866C23.8346 17.359 28.2238 21.6673 29.3481 27.8913C30.4634 28.0712 31.6327 28.1702 32.8559 28.1702Z" fill="#FF5959"/>
<path d="M30.0407 49.1899C30.0407 39.1702 31.2189 35.9053 32.8559 35.9053C34.5558 35.9053 35.6711 39.1702 35.6711 49.1899C35.6711 59.1466 34.5558 62.4115 32.8559 62.4115C31.2189 62.4115 30.0407 59.1466 30.0407 49.1899ZM32.8559 35.0778C31.6327 35.0778 30.4544 35.1767 29.3301 35.3656C28.1968 41.5537 23.8166 45.871 17.2778 46.7524C17.1518 47.5349 17.0889 48.3444 17.0889 49.1899C17.0889 57.8244 23.5378 63.248 32.8559 63.248C42.183 63.248 48.5689 57.8244 48.5689 49.1899C48.5689 48.3444 48.506 47.5259 48.38 46.7344C41.9041 45.835 37.479 41.5357 36.3277 35.3566C35.2304 35.1767 34.0701 35.0778 32.8559 35.0778Z" fill="#FF5959"/>
<path d="M0.881424 31.0753C0.881424 29.4654 4.33524 28.404 14.9395 28.404C25.4899 28.404 28.9437 29.4654 28.9437 31.0753C28.9437 32.6314 25.4899 33.7376 14.9395 33.7376C4.33524 33.7376 0.881424 32.6314 0.881424 31.0753ZM29.8251 31.0753C29.8251 29.9331 29.7262 28.8358 29.5373 27.7924C22.9625 26.7131 18.3843 22.5577 17.4669 16.3517C16.6574 16.2437 15.812 16.1898 14.9395 16.1898C5.86427 16.1898 0 22.2429 0 31.0753C0 39.8988 5.86427 46.0149 14.9395 46.0149C15.821 46.0149 16.6664 45.9519 17.4759 45.844C18.4203 39.7009 22.9805 35.5095 29.5283 34.4212C29.7172 33.3599 29.8251 32.2356 29.8251 31.0753Z" fill="#FF5959"/>
<path d="M37.7584 31.0753C37.7584 29.4654 41.2122 28.404 51.8165 28.404C62.3668 28.404 65.8206 29.4654 65.8206 31.0753C65.8206 32.6314 62.3668 33.7376 51.8165 33.7376C41.2122 33.7376 37.7584 32.6314 37.7584 31.0753ZM49.2351 16.3606C48.3177 22.5847 43.7576 26.7401 37.1648 27.8014C36.9759 28.8447 36.877 29.9331 36.877 31.0753C36.877 32.2356 36.9849 33.3509 37.1738 34.4122C43.7306 35.4915 48.2817 39.6829 49.2261 45.835C50.0536 45.9519 50.9171 46.0149 51.8165 46.0149C60.9547 46.0149 66.702 39.8988 66.702 31.0753C66.702 22.2429 60.9547 16.1898 51.8165 16.1898C50.926 16.1898 50.0626 16.2527 49.2351 16.3606Z" fill="#FF5959"/>
</svg>
